<?xml version="1.0" encoding="UTF-8" standalone="no"?>
<svg
   xmlns:dc="http://purl.org/dc/elements/1.1/"
   xmlns:cc="http://creativecommons.org/ns#"
   xmlns:rdf="http://www.w3.org/1999/02/22-rdf-syntax-ns#"
   xmlns:svg="http://www.w3.org/2000/svg"
   xmlns="http://www.w3.org/2000/svg"
   xmlns:sodipodi="http://sodipodi.sourceforge.net/DTD/sodipodi-0.dtd"
   xmlns:inkscape="http://www.inkscape.org/namespaces/inkscape"
   width="16"
   height="16"
   viewBox="0 0 4.2333332 4.2333335"
   version="1.1"
   id="svg8"
   inkscape:version="1.0.1 (3bc2e813f5, 2020-09-07)"
   sodipodi:docname="AnchorsLocal.svg">
  <defs
     id="defs2" />
  <sodipodi:namedview
     id="base"
     pagecolor="#ffffff"
     bordercolor="#666666"
     borderopacity="1.0"
     inkscape:pageopacity="0.0"
     inkscape:pageshadow="2"
     inkscape:zoom="44.8"
     inkscape:cx="4.5096267"
     inkscape:cy="4.17701"
     inkscape:document-units="px"
     inkscape:current-layer="layer1"
     inkscape:document-rotation="0"
     showgrid="true"
     units="px"
     inkscape:snap-global="true"
     inkscape:snap-object-midpoints="true"
     inkscape:window-width="2860"
     inkscape:window-height="1670"
     inkscape:window-x="2260"
     inkscape:window-y="104"
     inkscape:window-maximized="0"
     inkscape:object-nodes="false"
     inkscape:snap-nodes="false">
    <inkscape:grid
       type="xygrid"
       id="grid833"
       dotted="true"
       spacingx="0.26458333"
       empspacing="2" />
  </sodipodi:namedview>
  <metadata
     id="metadata5">
    <rdf:RDF>
      <cc:Work
         rdf:about="">
        <dc:format>image/svg+xml</dc:format>
        <dc:type
           rdf:resource="http://purl.org/dc/dcmitype/StillImage" />
        <dc:title></dc:title>
      </cc:Work>
    </rdf:RDF>
  </metadata>
  <g
     inkscape:label="Layer 1"
     inkscape:groupmode="layer"
     id="layer1">
    <rect
       style="fill:#e48484;fill-opacity:1;stroke:none;stroke-width:0.529;stroke-linecap:round;stroke-linejoin:round;stroke-opacity:1;paint-order:markers stroke fill"
       id="rect854"
       width="3.7041667"
       height="3.175"
       x="-2.1166666"
       y="1.5875" />
    <rect
       style="fill:#e48484;fill-opacity:1;stroke:none;stroke-width:0.529;stroke-linecap:round;stroke-linejoin:round;stroke-opacity:1;paint-order:markers stroke fill"
       id="rect854-7"
       width="3.7041669"
       height="3.175"
       x="2.9104166"
       y="-1.5875" />
    <path
       style="fill:none;stroke:#9ae3e3;stroke-width:0.264583px;stroke-linecap:butt;stroke-linejoin:miter;stroke-opacity:1"
       d="M 0.79374999,2.38125 1.8520833,0.79374999"
       id="path852"
       sodipodi:nodetypes="cc" />
    <circle
       style="fill:#7fcbcb;fill-opacity:1;stroke:none;stroke-width:0.529;stroke-linecap:round;stroke-linejoin:round;paint-order:markers stroke fill"
       id="path835"
       cx="0.79374999"
       cy="2.3812499"
       r="0.5291667" />
    <circle
       style="fill:#7fcbcb;fill-opacity:1;stroke:none;stroke-width:0.529;stroke-linecap:round;stroke-linejoin:round;paint-order:markers stroke fill"
       id="path835-9"
       cx="1.8520833"
       cy="0.79374999"
       r="0.5291667" />
    <path
       d="M 3.1726334,2.1166498 A 0.15123202,0.15123202 0 0 0 3.0680805,2.1606569 L 2.7656467,2.4630907 2.9794826,2.6769265 3.175006,2.4814031 3.3705295,2.6769265 3.5843653,2.4630907 3.2819315,2.1606569 A 0.15123202,0.15123202 0 0 0 3.1726531,2.1166498 Z M 2.4632145,2.7655215 2.1607806,3.0679553 a 0.15123202,0.15123202 0 0 0 0,0.2138358 L 2.4632145,3.5842249 2.6770502,3.3703891 2.4815268,3.1748657 2.6770502,2.9793422 2.4632145,2.7655063 Z m 1.423571,0 L 3.6729496,2.9793573 3.8684731,3.1748807 3.6729496,3.3704042 3.8867855,3.5842401 4.1892193,3.2818062 a 0.15123202,0.15123202 0 0 0 0,-0.2138358 L 3.8867855,2.7655366 Z M 3.1750075,2.8724364 A 0.30243381,0.30243381 0 0 0 2.8725737,3.1748702 0.30243381,0.30243381 0 0 0 3.1750075,3.477304 0.30243381,0.30243381 0 0 0 3.4774413,3.1748702 0.30243381,0.30243381 0 0 0 3.1750075,2.8724364 Z M 2.979484,3.6728275 2.7656482,3.8866633 3.068082,4.1890971 a 0.15123202,0.15123202 0 0 0 0.2138359,0 L 3.5843516,3.8866633 3.3705159,3.6728275 3.1749924,3.868351 2.9794689,3.6728275 Z"
       fill="#e0e0e0"
       fill-opacity="0.99608"
       id="path2"
       style="stroke-width:0.264583" />
  </g>
</svg>
