<svg height="16" viewBox="0 0 4.2333332 4.2333335" width="16" xmlns="http://www.w3.org/2000/svg"><path d="m-2.116667 1.5875h3.704167v3.175h-3.704167z" fill="#e48484"/><path d="m2.910417-1.5875h3.704167v3.175h-3.704167z" fill="#e48484"/><path d="m.79374999 2.38125 1.05833331-1.58750001" fill="none" stroke="#9ae3e3" stroke-width=".264583"/><circle cx=".79375" cy="2.38125" fill="#7fcbcb" r=".529167"/><circle cx="1.852083" cy=".79375" fill="#7fcbcb" r=".529167"/><path d="m3.1726334 2.1166498a.15123202.15123202 0 0 0 -.1045529.0440071l-.3024338.3024338.2138359.2138358.1955234-.1955234.1955235.1955234.2138358-.2138358-.3024338-.3024338a.15123202.15123202 0 0 0 -.1092784-.0440071zm-.7094189.6488717-.3024339.3024338a.15123202.15123202 0 0 0 0 .2138358l.3024339.3024338.2138357-.2138358-.1955234-.1955234.1955234-.1955235-.2138357-.2138359zm1.423571 0-.2138359.2138358.1955235.1955234-.1955235.1955235.2138359.2138359.3024338-.3024339a.15123202.15123202 0 0 0 0-.2138358l-.3024338-.3024338zm-.711778.1069149a.30243381.30243381 0 0 0 -.3024338.3024338.30243381.30243381 0 0 0 .3024338.3024338.30243381.30243381 0 0 0 .3024338-.3024338.30243381.30243381 0 0 0 -.3024338-.3024338zm-.1955235.8003911-.2138358.2138358.3024338.3024338a.15123202.15123202 0 0 0 .2138359 0l.3024337-.3024338-.2138357-.2138358-.1955235.1955235-.1955235-.1955235z" fill="#e0e0e0" fill-opacity=".99608" stroke-width=".264583"/></svg>