<svg height="16" viewBox="0 0 4.2333332 4.2333335" width="16" xmlns="http://www.w3.org/2000/svg"><path d="m-2.116667 1.5875h3.704167v3.175h-3.704167z" fill="#e48484"/><path d="m2.38125-1.5875h3.704167v3.175h-3.704167z" fill="#e48484"/><path d="m.79374999 2.38125 2.38125001-1.58750001" fill="none" stroke="#9ae3e3" stroke-width=".264583"/><circle cx=".79375" cy="2.38125" fill="#7fcbcb" r=".529167"/><circle cx="3.175" cy=".79375" fill="#7fcbcb" r=".529167"/><path d="m3.2127977 1.8520834a.85044646.85044646 0 0 0 -.8504464.8504464v.3401785h-.1700893v1.1906252h2.0410715v-1.1906252h-.1700892v-.3401785a.85044646.85044646 0 0 0 -.8504466-.8504464zm0 .3401785a.51026786.51026786 0 0 1 .5102679.5102679v.3401785h-1.0205357v-.3401785a.51026786.51026786 0 0 1 .5102678-.5102679zm-.1700892 1.1906251h.3401784v.5102678h-.3401784z" fill="#e0e0e0" stroke-width=".264583"/></svg>