<svg height="16" viewBox="0 0 16 16" width="16" xmlns="http://www.w3.org/2000/svg"><path d="m7.5 10v5.5h1.5s1.5 0 1.5-1.5-1.5-1.5-1.5-1.5h-1.5" fill="none" stroke="#a5b7f3" stroke-linecap="square"/><path d="m15.5 15.5h-3c0-2.5 3-2 3-4 0 0 0-1-1.5-1s-1.5 1-1.5 1" fill="none" stroke="#a5b7f3" stroke-linecap="square"/><path d="m7.5 3.5-1.5 1.5 6.5 3.5 1.5-1.5zm-3 3-1.5 1.5 3 1.6152344v-1.1152344h2.2148438zm4.5 2.4238281v1.0761719 1s.3762952-.008706.8671875.132812l1.1328125-1.132812zm-5.5 1.5761719-1.5 1.5 4 2.222656v-.222656-2.111328z" fill="#708ceb" fill-opacity=".988235"/><path d="m11 0 1.5 1.5-2 2-.5.5 2.5 4.5 1.5-1.5-1.072266-1.9277344 1.572266-1.5722656 1.5 1.5v-5zm-3.5 3.5-1.5 1.5 1.8847656 3.5h1.1152344v1.5.572266l.2421875.447265c.1530267.009213.3189771.025059.625.113281l1.1328125-1.132812zm-3 3-1.5 1.5 3 5.572266v-2.572266-1-.7148438zm-1 4-2 2-1.5-1.5v5h5l-1.5-1.5 1-1z" fill="#96abf0" fill-opacity=".996639"/></svg>