<svg height="16" viewBox="0 0 16 16" width="16" xmlns="http://www.w3.org/2000/svg"><path d="m1 1v2 2h2v-2h2v-2zm10 0v2h2v2h2v-4zm-7 3v2 4 2h2v-1-1-1.5-2.5h4v4h-1v1s.6871507-.020682 1.419922.345703c.191557.095779.39005.24057.580078.419922v-.265625s.012781-.766391.488281-1.400391c.133078-.1774357.311463-.335926.511719-.4804684v-5.6191406zm-3 7v2 2h2 2v-2h-2v-2z" fill="#a5b7f3"/><g fill="none" stroke="#a5b7f3" stroke-linecap="square"><path d="m7.5 10v5.5h1.5s1.5 0 1.5-1.5-1.5-1.5-1.5-1.5h-1.5"/><path d="m15.5 15.5h-3c0-2.5 3-2 3-4 0 0 0-1-1.5-1s-1.5 1-1.5 1"/></g></svg>