<svg height="16" viewBox="0 0 16 16" width="16" xmlns="http://www.w3.org/2000/svg"><path d="m2 1a1.0001 1.0001 0 0 0 -1 1v12a1.0001 1.0001 0 0 0 1 1h4v-1-1h-3v-10h8.585938l-4.2929692 4.2929688a1.0001 1.0001 0 0 0 -.1582032 1.2070312h1.8652344v1.5.414062l.6738281.673829c.2255806.05029.4759839.122758.7460939.257812.191557.095779.39005.24057.580078.419922v-.265625s.012781-.766391.488281-1.400391c.003427-.004569.010196-.007166.013672-.011718l-2.0878905-2.087891 5.2929685-5.2929688a1.0001 1.0001 0 0 0 -.707031-1.7070312zm9.810547 12c.01376.037225.032532.071375.044922.109375.045892-.038225.090592-.059375.138672-.109375z" fill="#68b6ff"/><g fill="none" stroke="#68b6ff" stroke-linecap="square"><path d="m7.5 10v5.5h1.5s1.5 0 1.5-1.5-1.5-1.5-1.5-1.5h-1.5"/><path d="m15.5 15.5h-3c0-2.5 3-2 3-4 0 0 0-1-1.5-1s-1.5 1-1.5 1"/></g></svg>