<svg height="16" viewBox="0 0 16 16" width="16" xmlns="http://www.w3.org/2000/svg"><path d="m8 1a7 7 0 0 0 -7 7 7 7 0 0 0 1.2226562 3.953125 7 7 0 0 0 .3027344.408203c.000785-.0026.0011732-.005312.0019532-.007812a7 7 0 0 0 3.4726562 2.351562v-.705078-.34375a6 6 0 0 1 -3.0546875-2.425781c.23771-.5785.5033619-1.14025.8261719-1.6562502a2 2 0 0 0 1.2285156.4257812 2 2 0 0 0 1-.2714844v-1.2285156h3v1.5 1s.6871508-.020682 1.419922.345703c.191557.095779.39005.24057.580078.419922v-.265625s.012781-.766391.488281-1.400391c.4755-.6339988 1.428386-1.099609 2.511719-1.099609.316841 0 .616498.0488747.902344.1210938a7 7 0 0 0 .035156-.2558594 7 7 0 0 0 .037109-.3125 7 7 0 0 0 .025391-.5527344 7 7 0 0 0 -4.392578-6.4921875 7 7 0 0 0 -.001953 0 7 7 0 0 0 -.6601565-.2285156 7 7 0 0 0 -.0058594-.0019531 7 7 0 0 0 -.5507812-.1308594 7 7 0 0 0 -.140625-.03125 7 7 0 0 0 -.5507813-.0722656 7 7 0 0 0 -.1425781-.0175782 7 7 0 0 0 -.5546875-.0253906zm1.9511719 1.3339844a6 6 0 0 1 4.0488281 5.6660156h-7a2 2 0 0 0 -.9492188-1.6992188c1.3464001-2.0289 2.6037907-3.2630968 3.9003907-3.9667968zm-6.828125 2.1796875c.14632.65093.3577637 1.2832656.6835937 1.8847656a2 2 0 0 0 -.8066406 1.6015625h-1a6 6 0 0 1 1.1230469-3.4863281zm8.6875001 8.4863281c.013757.037222.032535.071376.044922.109375.045893-.038226.090592-.059378.138672-.109375z" fill="#a5b7f3"/><g fill="none" stroke="#a5b7f3" stroke-linecap="square"><path d="m7.5 10v5.5h1.5s1.5 0 1.5-1.5-1.5-1.5-1.5-1.5h-1.5"/><path d="m15.5 15.5h-3c0-2.5 3-2 3-4 0 0 0-1-1.5-1s-1.5 1-1.5 1"/></g></svg>