<svg height="16" viewBox="0 0 4.2333332 4.2333332" width="16" xmlns="http://www.w3.org/2000/svg"><path d="m3.1749998 0c.396875 0 .5291667.13229166.5291667.52916664v1.32291656h-1.0583333l.5291666-1.32291656h-2.64583316l.52916666 1.32291656h-1.0583333v-1.32291655c0-.39687499.13229166-.52916665.52916665-.52916665z" fill="#a5b7f3"/><path d="m4 3 2 5h-6v4c0 1.5.50000003 2 2 2h4.0019531v-3.001953-.996094-1.5058592h2.9960938v1.5058592.996094s.6930103-.018729 1.4257811.347656c.190267.095134.385381.240011.574219.417969v-.261719s.012781-.770297.488281-1.404297c.474914-.6332174 1.431983-1.0984625 2.513672-1.0996091v-.9980469h-6l2-5zm7.814453 10c.013646.036862.030663.071754.042969.109375.045658-.037614.090721-.059574.138672-.109375z" fill="#a5b7f3" transform="scale(.26458333)"/><g fill="none" stroke="#a5b7f3" stroke-linecap="square" stroke-width=".264583"><path d="m1.9843749 2.6458333v1.4552083h.396875s.3968751 0 .3968751-.396875-.3968751-.396875-.3968751-.396875h-.396875"/><path d="m4.1010416 4.1010416h-.79375c0-.6614583.79375-.5291667.79375-1.0583333 0 0 0-.2645833-.396875-.2645833s-.396875.2645833-.396875.2645833"/></g></svg>