<svg height="16" viewBox="0 0 16 16" width="16" xmlns="http://www.w3.org/2000/svg"><path d="m8 1c-2.77 0-5 2.23-5 5v4c0 2.05682 1.2328358 3.810613 3 4.580078v-.480469-1.875c-.6101041-.548394-1-1.335906-1-2.224609v-4c0-1.662 1.338-3 3-3s3 1.338 3 3v4c0 .564435-.164672 1.085177-.433594 1.535156.145174.089436.291447.195918.433594.330078v-.265625s.012781-.76639.488281-1.40039c.319918-.4265571.865273-.7636764 1.511719-.9472659v-3.2519531c0-2.77-2.23-5-5-5zm3.810547 12.099609c.009072.024548.01913.048405.029297.072266.020029-.024243.040971-.047639.060547-.072266z" fill="#68b6ff"/><g fill="none" stroke="#68b6ff" stroke-linecap="square"><path d="m7.5 10.1v5.5h1.5s1.5 0 1.5-1.5-1.5-1.5-1.5-1.5h-1.5"/><path d="m15.5 15.6h-3c0-2.5 3-2 3-4 0 0 0-1-1.5-1s-1.5 1-1.5 1"/></g></svg>