<svg height="16" viewBox="0 0 4.2333332 4.2333335" width="16" xmlns="http://www.w3.org/2000/svg"><path d="m8.0019531 1.0039062c-3.8539789-.0000001-6.9980467 3.1440683-6.9980469 6.9980469 0 3.1587249 2.1141792 5.8363689 4.9980469 6.7011719v-.699219-1.419922c-1.7703545-.767381-3.0058593-2.521673-3.0058593-4.5820309 0-2.7734385 2.2324201-5.0058595 5.0058593-5.0058593 2.7734389 0 4.9980469 2.2324208 4.9980469 5.0058593 0 .417282-.065166.8164181-.160156 1.203125.359999-.1213224.746509-.2070312 1.164062-.2070312.315368 0 .613973.0475576.898438.1191406.058985-.3644216.097656-.73462.097656-1.1152344 0-3.8539786-3.144068-6.9980468-6.9980469-6.9980469zm3.8124999 11.9960938c.013646.036861.030663.071754.042969.109375.045658-.037614.090721-.059574.138672-.109375z" fill="#68b6ff" fill-rule="evenodd" transform="scale(.26458333)"/><text stroke-width=".264583" x="2.660167" y=".388376"><tspan stroke-width=".264583" x="2.660167" y=".388376"/></text><path d="m2.1166667 1.984375v.2636719h1.5878906v-.2636719z" fill="#68b6ff"/><g fill="none" stroke="#68b6ff" stroke-linecap="square" stroke-width=".264583"><path d="m1.984375 2.6458333v1.4552083h.396875s.396875 0 .396875-.396875-.396875-.396875-.396875-.396875h-.396875"/><path d="m4.1010417 4.1010416h-.79375c0-.6614583.79375-.5291666.79375-1.0583333 0 0 0-.2645833-.396875-.2645833s-.396875.2645833-.396875.2645833"/></g></svg>