<svg height="16" viewBox="0 0 16 16" width="16" xmlns="http://www.w3.org/2000/svg"><path d="m7.5 10v5.5h1.5s1.5 0 1.5-1.5-1.5-1.5-1.5-1.5h-1.5" fill="none" stroke="#a5b7f3" stroke-linecap="square"/><path d="m15.5 15.5h-3c0-2.5 3-2 3-4 0 0 0-1-1.5-1s-1.5 1-1.5 1" fill="none" stroke="#a5b7f3" stroke-linecap="square"/><g fill="#a5b7f3"><path d="m0 7 5.3339844 5.333984c.1840933.184094.4247289.275391.6660156.275391v-1.609375-.666016l-1.3339844-1.333984h1.3339844v-.5h3v.5h5l2-2z"/><path d="m10.666667.66666649c-.368187-.36818666-.9651466-.36818666-1.3333333 0-.3681868.36818661-.3681868.96514671 0 1.33333341l1.9999993 2h-9.3333329l-2.0000001 2.0000001h16z"/></g></svg>