<svg height="16" viewBox="0 0 16 16" width="16" xmlns="http://www.w3.org/2000/svg"><path d="m1.6773846 15.053736a1.0001 1.0001 0 0 1 -.5069871-.883592l.0000992-7.3791719c.2822127.3231733.6071255.6166478.9994263.8431428.3208018.185215.6592588.3022503 1.001207.3908587l-.0004601 6.1453964a1.0001 1.0001 0 0 1 -1.4933226.883391zm.9926154-8.2856598a3 3 0 0 1 -1.0980762-4.0980762 3 3 0 0 1 4.0980762-1.0980762l8.660254 5a1 1 0 0 1 .366026 1.3660254 1 1 0 0 1 -1.366026.3660254l-6.212693-3.5869a3 3 0 0 1 -.3494588.9529404 3 3 0 0 1 -4.0980762 1.0980762zm1-1.7320508a1 1 0 0 0 1.3660254-.3660254 1 1 0 0 0 -.3660254-1.3660254 1 1 0 0 0 -1.3660254.3660254 1 1 0 0 0 .3660254 1.3660254z" fill="#a5b7f3"/><g fill="none" stroke="#a5b7f3" stroke-linecap="square"><path d="m7.5 10v5.5h1.5s1.5 0 1.5-1.5-1.5-1.5-1.5-1.5h-1.5"/><path d="m15.5 15.5h-3c0-2.5 3-2 3-4 0 0 0-1-1.5-1s-1.5 1-1.5 1"/></g></svg>