<?xml version="1.0" encoding="UTF-8" standalone="no"?>
<svg
   xmlns:dc="http://purl.org/dc/elements/1.1/"
   xmlns:cc="http://creativecommons.org/ns#"
   xmlns:rdf="http://www.w3.org/1999/02/22-rdf-syntax-ns#"
   xmlns:svg="http://www.w3.org/2000/svg"
   xmlns="http://www.w3.org/2000/svg"
   xmlns:sodipodi="http://sodipodi.sourceforge.net/DTD/sodipodi-0.dtd"
   xmlns:inkscape="http://www.inkscape.org/namespaces/inkscape"
   width="16"
   height="16"
   viewBox="0 0 4.2333332 4.2333335"
   version="1.1"
   id="svg8"
   inkscape:version="1.0.1 (3bc2e813f5, 2020-09-07)"
   sodipodi:docname="icon_box2d_world.svg">
  <defs
     id="defs2" />
  <sodipodi:namedview
     id="base"
     pagecolor="#ffffff"
     bordercolor="#666666"
     borderopacity="1.0"
     inkscape:pageopacity="0.0"
     inkscape:pageshadow="2"
     inkscape:zoom="44.8"
     inkscape:cx="6.9793785"
     inkscape:cy="7.4994552"
     inkscape:document-units="mm"
     inkscape:current-layer="layer1"
     inkscape:document-rotation="0"
     showgrid="false"
     units="px"
     inkscape:window-width="1819"
     inkscape:window-height="1228"
     inkscape:window-x="1336"
     inkscape:window-y="467"
     inkscape:window-maximized="0" />
  <metadata
     id="metadata5">
    <rdf:RDF>
      <cc:Work
         rdf:about="">
        <dc:format>image/svg+xml</dc:format>
        <dc:type
           rdf:resource="http://purl.org/dc/dcmitype/StillImage" />
        <dc:title />
      </cc:Work>
    </rdf:RDF>
  </metadata>
  <g
     inkscape:label="Layer 1"
     inkscape:groupmode="layer"
     id="layer1">
    <ellipse
       style="fill:#ff0000;fill-opacity:0;fill-rule:evenodd;stroke:#a5b7f3;stroke-width:0.529166;stroke-miterlimit:4;stroke-dasharray:none;stroke-opacity:1"
       id="path10"
       cx="2.1166663"
       cy="2.1166666"
       rx="1.5875"
       ry="1.5875003" />
    <path
       style="fill:none;stroke:#a5b7f3;stroke-width:0.396875;stroke-linecap:butt;stroke-linejoin:miter;stroke-miterlimit:4;stroke-dasharray:none;stroke-opacity:1"
       d="m 0.7702526,1.586616 0.950295,0.7060554 -0.6280198,0.821133"
       id="path864"
       sodipodi:nodetypes="ccc" />
    <path
       style="fill:none;stroke:#a5b7f3;stroke-width:0.396875;stroke-linecap:butt;stroke-linejoin:miter;stroke-miterlimit:4;stroke-dasharray:none;stroke-opacity:1"
       d="M 2.3074211,0.69431564 2.2884953,1.7163715 2.850588,1.8098014 2.8032691,2.3383115 3.4481672,2.684579"
       id="path866"
       sodipodi:nodetypes="ccccc" />
    <g
       aria-label="b2"
       id="text870"
       style="font-style:normal;font-variant:normal;font-weight:bold;font-stretch:normal;font-size:1.76389px;line-height:1.25;font-family:Consolas;-inkscape-font-specification:'Consolas, Bold';font-variant-ligatures:normal;font-variant-caps:normal;font-variant-numeric:normal;font-variant-east-asian:normal;fill:#000000;fill-opacity:1;stroke:none;stroke-width:0.264583;stroke-miterlimit:4;stroke-dasharray:none;paint-order:markers stroke fill">
      <path
         d="m 3.0469099,3.472224 q 0,0.1205784 -0.034451,0.2084284 -0.03359,0.08785 -0.09474,0.1464167 -0.060289,0.057705 -0.1429716,0.086127 -0.082682,0.027561 -0.1800064,0.027561 -0.095601,0 -0.1782838,-0.014642 -0.081821,-0.01378 -0.1567519,-0.037896 V 2.7082736 h 0.210151 v 0.2859431 l -0.00861,0.1722549 q 0.04737,-0.061151 0.1102431,-0.098185 0.063734,-0.037035 0.1524456,-0.037035 0.077515,0 0.1378039,0.031006 0.060289,0.031006 0.1007691,0.088711 0.041341,0.056844 0.062873,0.1386652 0.021532,0.08096 0.021532,0.1825902 z m -0.2204862,0.00861 q 0,-0.072347 -0.010335,-0.1231622 -0.010335,-0.050815 -0.030145,-0.083544 -0.018948,-0.032728 -0.04737,-0.04737 -0.027561,-0.015503 -0.063734,-0.015503 -0.053399,0 -0.1024917,0.043064 -0.048231,0.043064 -0.1024916,0.1171333 v 0.3824058 q 0.024977,0.00947 0.06115,0.015503 0.037035,0.00603 0.074931,0.00603 0.049954,0 0.090434,-0.020671 0.041341,-0.020671 0.069763,-0.058567 0.029283,-0.037896 0.044786,-0.092156 0.015503,-0.055122 0.015503,-0.1231623 z"
         style="font-style:normal;font-variant:normal;font-weight:bold;font-stretch:normal;font-size:1.76389px;font-family:Consolas;-inkscape-font-specification:'Consolas, Bold';font-variant-ligatures:normal;font-variant-caps:normal;font-variant-numeric:normal;font-variant-east-asian:normal;letter-spacing:-0.0291042px;fill:#a5b7f3;fill-opacity:1;stroke:#ffffff;stroke-width:0.264583;stroke-linejoin:round;stroke-miterlimit:4;stroke-dasharray:none;stroke-opacity:1;paint-order:markers stroke fill"
         id="path837" />
      <path
         d="M 3.1917832,3.9252543 V 3.7702249 L 3.457917,3.5040911 Q 3.5328478,3.4291603 3.5776341,3.3749 q 0.045648,-0.05426 0.069763,-0.096463 0.024977,-0.043064 0.032728,-0.079237 0.00775,-0.036173 0.00775,-0.074931 0,-0.031867 -0.010335,-0.060289 -0.010335,-0.029283 -0.030145,-0.049954 -0.019809,-0.021532 -0.049954,-0.03359 -0.030145,-0.012919 -0.068902,-0.012919 -0.066318,0 -0.1231623,0.029283 -0.056844,0.028422 -0.1076593,0.076653 L 3.1866155,2.9304824 q 0.073208,-0.068041 0.1645034,-0.1085206 0.092156,-0.041341 0.1989544,-0.041341 0.082682,0 0.1498618,0.021532 0.067179,0.020671 0.1145495,0.062012 0.048231,0.041341 0.07407,0.103353 0.026699,0.062012 0.026699,0.1429715 0,0.067179 -0.018087,0.1257461 -0.018087,0.057705 -0.052538,0.112827 -0.034451,0.055122 -0.085266,0.1102431 -0.049954,0.055122 -0.1145495,0.116272 L 3.4811714,3.7314676 h 0.4745622 v 0.1937867 z"
         style="font-style:normal;font-variant:normal;font-weight:bold;font-stretch:normal;font-size:1.76389px;font-family:Consolas;-inkscape-font-specification:'Consolas, Bold';font-variant-ligatures:normal;font-variant-caps:normal;font-variant-numeric:normal;font-variant-east-asian:normal;letter-spacing:-0.0291042px;fill:#a5b7f3;fill-opacity:1;stroke:#ffffff;stroke-width:0.264583;stroke-linejoin:round;stroke-miterlimit:4;stroke-dasharray:none;stroke-opacity:1;paint-order:markers stroke fill"
         id="path839" />
    </g>
    <text
       xml:space="preserve"
       style="font-style:normal;font-weight:normal;font-size:10.5833px;line-height:1.25;font-family:sans-serif;fill:#000000;fill-opacity:1;stroke:none;stroke-width:0.264583"
       x="2.6601672"
       y="0.38837603"
       id="text874"><tspan
         sodipodi:role="line"
         id="tspan872"
         x="2.6601672"
         y="0.38837603"
         style="stroke-width:0.264583" /></text>
  </g>
</svg>
