<svg height="16" viewBox="0 0 16 16" width="16" xmlns="http://www.w3.org/2000/svg"><path d="m7.5 10v5.5h1.5s1.5 0 1.5-1.5-1.5-1.5-1.5-1.5h-1.5" fill="none" stroke="#68b6ff" stroke-linecap="square"/><path d="m15.5 15.5h-3c0-2.5 3-2 3-4 0 0 0-1-1.5-1s-1.5 1-1.5 1" fill="none" stroke="#68b6ff" stroke-linecap="square"/><path d="m2 1a1.0001 1.0001 0 0 0 -1 1v8a1.0001 1.0001 0 0 0 1 1h4v-1-1h-3v-6h10v6h-4v1 1h2.078125c.064833-.265784.182171-.59641.410156-.900391.4755-.6339988 1.428386-1.099609 2.511719-1.099609.354464 0 .68562.0630602 1 .1523438v-7.1523438a1.0001 1.0001 0 0 0 -1-1z" fill="#68b6ff"/></svg>