<svg height="16" viewBox="0 0 16 16" width="16" xmlns="http://www.w3.org/2000/svg"><path d="m7.5 10v5.5h1.5s1.5 0 1.5-1.5-1.5-1.5-1.5-1.5h-1.5" fill="none" stroke="#68b6ff" stroke-linecap="square"/><path d="m15.5 15.5h-3c0-2.5 3-2 3-4 0 0 0-1-1.5-1s-1.5 1-1.5 1" fill="none" stroke="#68b6ff" stroke-linecap="square"/><path d="m14.029297 1a1 1 0 0 0 -.736328.2929688l-7.2070315 7.2070312h2.828125l5.7929685-5.7929688a1 1 0 0 0 0-1.4140624 1 1 0 0 0 -.677734-.2929688zm-8.029297 7.5859375-4.7070312 4.7070315a1 1 0 0 0 0 1.414062 1 1 0 0 0 1.4140624 0l3.2929688-3.292969v-.414062-1z" fill="#68b6ff"/></svg>