<svg height="16" viewBox="0 0 16 16" width="16" xmlns="http://www.w3.org/2000/svg"><path d="m2 1a1.0001 1.0001 0 0 0 -1 1v12a1.0001 1.0001 0 0 0 1 1h4v-1-1h-3v-10h10v6.1523438c.31438-.0892836.645536-.1523438 1-.1523438s.68562.0630602 1 .1523438v-7.1523438a1.0001 1.0001 0 0 0 -1-1zm9.810547 12c.013757.037222.032535.071376.044922.109375.045893-.038226.090592-.059378.138672-.109375z" fill="#a5b7f3" fill-opacity=".98824"/><g fill="none" stroke="#a5b7f3" stroke-linecap="square"><path d="m7.5 10v5.5h1.5s1.5 0 1.5-1.5-1.5-1.5-1.5-1.5h-1.5"/><path d="m15.5 15.5h-3c0-2.5 3-2 3-4 0 0 0-1-1.5-1s-1.5 1-1.5 1"/></g></svg>