<svg height="16" viewBox="0 0 4.2333332 4.2333335" width="16" xmlns="http://www.w3.org/2000/svg"><path d="m8.0019531.99609375c-3.8556293-.00000008-7.0058595 3.15023005-7.00585935 7.00585935 0 3.1600969 2.11760545 5.8386909 5.00390625 6.7031249v-.705078-1.144531c-.0089201-.003663-.0184483-.006056-.0273438-.009766l.0273438-.064453v-1.779297-1.0039061-.5957031l-.2519531-.0820313-1.0625.0664063-1.1035157-1.0097657 1.9785157-2.0214843-.0996094-1.53125-1.3046875-.3789063c.3857308-.4171787.8402555-.7612259 1.34375-1.0351563l.625.1582032.6210938.7070312 2.3535156-.7070312 1.2792966-.2246094c1.007508.5131884 1.819744 1.3334188 2.31836 2.3496094l-2.398438-.3203125-1.3574218 1.0546875.0566407 1.4589844 1.4746091.6210937.591797 2.2109375.091797.054688c.072324-.216357.168047-.448022.335938-.671876.475499-.6339994 1.426432-1.0996089 2.509765-1.0996089.315593 0 .613798.0494139.898438.1210938.059392-.3658221.099609-.7388885.099609-1.1210938 0-3.855629-3.142417-7.00585935-6.9980469-7.00585935zm-5.1542969 7.99218745 1.0527344.2851563.3710938 1.3261715.7988281.488282-.1582031 1.146484c-1.0530287-.768513-1.8127725-1.911359-2.0644532-3.2460938zm8.9667968 4.0156248c.013262.03597.030988.06877.042969.105469.045033-.037878.089754-.056388.136719-.105469z" fill="#a5b7f3" transform="scale(.26458333)"/><g fill="none" stroke="#a5b7f3" stroke-linecap="square" stroke-width=".264583"><path d="m1.9848918 2.6458333v1.4552083h.396875s.396875 0 .396875-.396875-.396875-.396875-.396875-.396875h-.396875"/><path d="m4.1015585 4.1010416h-.79375c0-.6614583.79375-.5291666.79375-1.0583333 0 0 0-.2645833-.396875-.2645833s-.396875.2645833-.396875.2645833"/></g></svg>