<?xml version="1.0" encoding="UTF-8" standalone="no"?>
<svg
   xmlns:dc="http://purl.org/dc/elements/1.1/"
   xmlns:cc="http://creativecommons.org/ns#"
   xmlns:rdf="http://www.w3.org/1999/02/22-rdf-syntax-ns#"
   xmlns:svg="http://www.w3.org/2000/svg"
   xmlns="http://www.w3.org/2000/svg"
   xmlns:sodipodi="http://sodipodi.sourceforge.net/DTD/sodipodi-0.dtd"
   xmlns:inkscape="http://www.inkscape.org/namespaces/inkscape"
   height="16"
   viewBox="0 0 16 16"
   width="16"
   version="1.1"
   id="svg4"
   sodipodi:docname="icon_box2d_physics_body.svg"
   inkscape:version="1.0.1 (3bc2e813f5, 2020-09-07)">
  <metadata
     id="metadata10">
    <rdf:RDF>
      <cc:Work
         rdf:about="">
        <dc:format>image/svg+xml</dc:format>
        <dc:type
           rdf:resource="http://purl.org/dc/dcmitype/StillImage" />
      </cc:Work>
    </rdf:RDF>
  </metadata>
  <defs
     id="defs8" />
  <sodipodi:namedview
     pagecolor="#ffffff"
     bordercolor="#666666"
     borderopacity="1"
     objecttolerance="10"
     gridtolerance="10"
     guidetolerance="10"
     inkscape:pageopacity="0"
     inkscape:pageshadow="2"
     inkscape:window-width="2182"
     inkscape:window-height="1706"
     id="namedview6"
     showgrid="false"
     inkscape:zoom="44.547727"
     inkscape:cx="8.5276589"
     inkscape:cy="8.4746777"
     inkscape:window-x="870"
     inkscape:window-y="261"
     inkscape:window-maximized="0"
     inkscape:current-layer="svg4" />
  <path
     id="path2"
     d="M 8 1 A 7 7 0 0 0 1 8 A 7 7 0 0 0 2.2226562 11.953125 A 7 7 0 0 0 2.5253906 12.361328 C 2.5261756 12.358768 2.5265572 12.356076 2.5273438 12.353516 A 7 7 0 0 0 6.4257812 14.818359 L 6.4257812 13.789062 A 6 6 0 0 1 2.9453125 11.230469 C 3.1830225 10.651969 3.4486744 10.090219 3.7714844 9.5742188 A 2 2 0 0 0 5 10 A 2 2 0 0 0 6.0507812 9.6992188 C 6.1776392 9.8903826 6.3003944 10.041411 6.4257812 10.21875 L 6.4257812 9.8203125 A 0.50005 0.50005 0 0 1 6.9257812 9.3203125 L 8.0976562 9.3203125 A 0.50005 0.50005 0 0 1 8.5976562 9.8203125 L 8.5976562 10.775391 C 8.8204576 10.695034 9.0511462 10.628906 9.2988281 10.628906 C 9.8799748 10.628906 10.425342 10.879639 10.763672 11.330078 A 0.50005 0.50005 0 0 1 10.763672 11.324219 L 10.763672 10.246094 A 0.50005 0.50005 0 0 1 11.0625 9.7890625 C 11.269436 9.6987107 11.517622 9.6277079 11.833984 9.5566406 C 12.170194 9.4816587 12.508837 9.4433594 12.847656 9.4433594 C 13.524817 9.4433594 14.109122 9.5852337 14.548828 9.9375 C 14.598744 9.9772288 14.63711 10.02762 14.681641 10.072266 A 7 7 0 0 0 14.726562 9.9277344 A 7 7 0 0 0 14.814453 9.5585938 A 7 7 0 0 0 14.880859 9.265625 A 7 7 0 0 0 14.9375 8.8652344 A 7 7 0 0 0 14.974609 8.5527344 A 7 7 0 0 0 15 8 A 7 7 0 0 0 10.607422 1.5078125 A 7 7 0 0 0 10.605469 1.5078125 A 7 7 0 0 0 9.9453125 1.2792969 A 7 7 0 0 0 9.9394531 1.2773438 A 7 7 0 0 0 9.3886719 1.1464844 A 7 7 0 0 0 9.2480469 1.1152344 A 7 7 0 0 0 8.6972656 1.0429688 A 7 7 0 0 0 8.5546875 1.0253906 A 7 7 0 0 0 8 1 z M 9.9511719 2.3339844 A 6 6 0 0 1 14 8 L 7 8 A 2 2 0 0 0 6.0507812 6.3007812 C 7.3971813 4.2718812 8.6545719 3.0376844 9.9511719 2.3339844 z M 3.1230469 4.5136719 C 3.2693669 5.1646019 3.4808106 5.7969375 3.8066406 6.3984375 A 2 2 0 0 0 3 8 L 2 8 A 6 6 0 0 1 3.1230469 4.5136719 z M 12.611328 11.384766 C 12.480516 11.384766 12.329567 11.411266 12.154297 11.476562 C 11.970652 11.545657 11.80412 11.632702 11.648438 11.738281 A 0.50005 0.50005 0 0 1 11.367188 11.824219 L 11.263672 11.824219 A 0.50005 0.50005 0 0 1 11.003906 11.75 C 11.165493 12.117128 11.240234 12.540592 11.240234 13.007812 C 11.240234 13.146994 11.210763 13.27507 11.193359 13.408203 C 11.359893 13.281562 11.526926 13.160773 11.693359 13.025391 C 11.97842 12.79523 12.204611 12.598111 12.363281 12.443359 C 12.606583 12.208101 12.76696 12.009098 12.839844 11.884766 C 12.914593 11.757252 12.9375 11.662587 12.9375 11.578125 C 12.9375 11.464613 12.928794 11.473213 12.902344 11.451172 A 0.50005 0.50005 0 0 1 12.896484 11.445312 C 12.87358 11.425582 12.802375 11.384766 12.611328 11.384766 z M 8.7753906 12.513672 C 8.7238025 12.513672 8.6626956 12.525799 8.5976562 12.542969 L 8.5976562 12.695312 C 8.7412903 12.81932 8.8856263 12.957635 9.0292969 13.066406 C 9.029667 13.051153 9.0332031 13.045404 9.0332031 13.029297 C 9.0332031 12.760442 8.9798892 12.60294 8.9433594 12.544922 C 8.9355288 12.532485 8.9566255 12.513672 8.7753906 12.513672 z "
     style="fill:#a5b7f3;fill-opacity:1" />
  <g
     id="g881"
     style="opacity:1" />
  <g
     id="g887"
     style="opacity:1" />
  <g
     aria-label="b2"
     id="text847-2"
     style="font-style:normal;font-variant:normal;font-weight:bold;font-stretch:normal;font-size:6.66667px;line-height:1.25;font-family:sans-serif;-inkscape-font-specification:'sans-serif, Bold';font-variant-ligatures:normal;font-variant-caps:normal;font-variant-numeric:normal;font-variant-east-asian:normal;letter-spacing:-0.5px;mix-blend-mode:normal;fill:#a5b7f3;fill-opacity:1;stroke:none;stroke-linejoin:round;stroke-opacity:1;paint-order:markers stroke fill">
    <path
       d="m 10.741106,13.006851 q 0,0.862631 -0.478516,1.406251 -0.4752604,0.54362 -1.1881514,0.54362 -0.3059897,0 -0.5371096,-0.0651 -0.2311199,-0.0651 -0.4394534,-0.188802 l -0.048828,0.182292 H 6.9260001 V 9.8200005 h 1.1718755 v 1.7903655 q 0.2701824,-0.214844 0.5501305,-0.348308 0.2832033,-0.133463 0.651042,-0.133463 0.6933597,0 1.0677089,0.501302 0.374349,0.498047 0.374349,1.376954 z m -1.2076828,0.02279 q 0,-0.488281 -0.1660157,-0.751953 -0.1660157,-0.263672 -0.5924482,-0.263672 -0.1660157,0 -0.3417971,0.05208 -0.1757813,0.04883 -0.3352866,0.14323 v 1.835938 q 0.1269532,0.04557 0.2408856,0.06185 0.1139323,0.01628 0.2734376,0.01628 0.465495,0 0.6933597,-0.273438 0.2278647,-0.273437 0.2278647,-0.820313 z"
       id="path900" />
    <path
       d="m 14.941629,14.885107 h -3.80534 v -0.800782 q 0.436198,-0.315755 0.872396,-0.670573 0.439453,-0.354818 0.703125,-0.611979 0.393881,-0.38086 0.559896,-0.664063 0.166016,-0.283203 0.166016,-0.559896 0,-0.332032 -0.214844,-0.511068 -0.211588,-0.182292 -0.611979,-0.182292 -0.29948,0 -0.631511,0.123698 -0.328776,0.123698 -0.611979,0.315755 h -0.104167 v -1.077474 q 0.23112,-0.100912 0.680339,-0.201823 0.452474,-0.1009116 0.904948,-0.1009116 0.911459,0 1.389975,0.3841146 0.478515,0.38086 0.478515,1.08073 0,0.458984 -0.231119,0.872396 -0.227865,0.413412 -0.699871,0.852865 -0.296224,0.273438 -0.595703,0.504558 -0.299479,0.227864 -0.426432,0.31901 h 2.177735 z"
       id="path902" />
  </g>
</svg>
