<?xml version="1.0" encoding="UTF-8" standalone="no"?>
<svg
   xmlns:dc="http://purl.org/dc/elements/1.1/"
   xmlns:cc="http://creativecommons.org/ns#"
   xmlns:rdf="http://www.w3.org/1999/02/22-rdf-syntax-ns#"
   xmlns:svg="http://www.w3.org/2000/svg"
   xmlns="http://www.w3.org/2000/svg"
   xmlns:sodipodi="http://sodipodi.sourceforge.net/DTD/sodipodi-0.dtd"
   xmlns:inkscape="http://www.inkscape.org/namespaces/inkscape"
   height="16"
   viewBox="0 0 16 16"
   width="16"
   version="1.1"
   id="svg4"
   sodipodi:docname="Box2DPhysicsBody.svg"
   inkscape:version="1.0.1 (3bc2e813f5, 2020-09-07)">
  <metadata
     id="metadata10">
    <rdf:RDF>
      <cc:Work
         rdf:about="">
        <dc:format>image/svg+xml</dc:format>
        <dc:type
           rdf:resource="http://purl.org/dc/dcmitype/StillImage" />
        <dc:title />
      </cc:Work>
    </rdf:RDF>
  </metadata>
  <defs
     id="defs8" />
  <sodipodi:namedview
     pagecolor="#7f7f7f"
     bordercolor="#666666"
     borderopacity="1"
     objecttolerance="10"
     gridtolerance="10"
     guidetolerance="10"
     inkscape:pageopacity="1"
     inkscape:pageshadow="2"
     inkscape:window-width="2922"
     inkscape:window-height="1706"
     id="namedview6"
     showgrid="true"
     inkscape:zoom="64"
     inkscape:cx="6.6097957"
     inkscape:cy="8.70097"
     inkscape:window-x="2673"
     inkscape:window-y="169"
     inkscape:window-maximized="0"
     inkscape:current-layer="svg4"
     inkscape:document-rotation="0"
     inkscape:pagecheckerboard="true">
    <inkscape:grid
       type="xygrid"
       id="grid835" />
    <inkscape:grid
       type="xygrid"
       id="grid837" />
  </sodipodi:namedview>
  <path
     id="path2"
     d="M 8 1 A 7 7 0 0 0 1 8 A 7 7 0 0 0 2.2226562 11.953125 A 7 7 0 0 0 2.5253906 12.361328 C 2.5261756 12.358728 2.5265638 12.356016 2.5273438 12.353516 A 7 7 0 0 0 6 14.705078 L 6 14 L 6 13.65625 A 6 6 0 0 1 2.9453125 11.230469 C 3.1830225 10.651969 3.4486744 10.090219 3.7714844 9.5742188 A 2 2 0 0 0 5 10 A 2 2 0 0 0 6 9.7285156 L 6 8.5 L 9 8.5 L 9 10 L 9 11 C 9 11 9.6871508 10.979318 10.419922 11.345703 C 10.611479 11.441482 10.809972 11.586273 11 11.765625 L 11 11.5 C 11 11.5 11.012781 10.733609 11.488281 10.099609 C 11.963781 9.4656102 12.916667 9 14 9 C 14.316841 9 14.616498 9.0488747 14.902344 9.1210938 A 7 7 0 0 0 14.9375 8.8652344 A 7 7 0 0 0 14.974609 8.5527344 A 7 7 0 0 0 15 8 A 7 7 0 0 0 10.607422 1.5078125 A 7 7 0 0 0 10.605469 1.5078125 A 7 7 0 0 0 9.9453125 1.2792969 A 7 7 0 0 0 9.9394531 1.2773438 A 7 7 0 0 0 9.3886719 1.1464844 A 7 7 0 0 0 9.2480469 1.1152344 A 7 7 0 0 0 8.6972656 1.0429688 A 7 7 0 0 0 8.5546875 1.0253906 A 7 7 0 0 0 8 1 z M 9.9511719 2.3339844 A 6 6 0 0 1 14 8 L 7 8 A 2 2 0 0 0 6.0507812 6.3007812 C 7.3971813 4.2718812 8.6545719 3.0376844 9.9511719 2.3339844 z M 3.1230469 4.5136719 C 3.2693669 5.1646019 3.4808106 5.7969375 3.8066406 6.3984375 A 2 2 0 0 0 3 8 L 2 8 A 6 6 0 0 1 3.1230469 4.5136719 z M 11.810547 13 C 11.824304 13.037222 11.843082 13.071376 11.855469 13.109375 C 11.901362 13.071149 11.946061 13.049997 11.994141 13 L 11.810547 13 z "
     style="fill:#a5b7f3;fill-opacity:1" />
  <path
     style="fill:none;stroke:#a5b7f3;stroke-width:1px;stroke-linecap:square;stroke-linejoin:miter;stroke-opacity:1"
     d="m 7.5,10 v 5.5 H 9 c 0,0 1.5,0 1.5,-1.5 C 10.5,12.5 9,12.5 9,12.5 H 7.5"
     id="path987"
     sodipodi:nodetypes="ccczcc" />
  <path
     style="fill:none;stroke:#a5b7f3;stroke-width:1px;stroke-linecap:square;stroke-linejoin:miter;stroke-opacity:1"
     d="m 15.5,15.5 h -3 c 0,-2.5 3,-2 3,-4 0,0 0,-1 -1.5,-1 -1.5,0 -1.5,1 -1.5,1"
     id="path989"
     sodipodi:nodetypes="ccszc" />
</svg>
