<?xml version="1.0" encoding="UTF-8" standalone="no"?>
<svg
   xmlns:dc="http://purl.org/dc/elements/1.1/"
   xmlns:cc="http://creativecommons.org/ns#"
   xmlns:rdf="http://www.w3.org/1999/02/22-rdf-syntax-ns#"
   xmlns:svg="http://www.w3.org/2000/svg"
   xmlns="http://www.w3.org/2000/svg"
   xmlns:sodipodi="http://sodipodi.sourceforge.net/DTD/sodipodi-0.dtd"
   xmlns:inkscape="http://www.inkscape.org/namespaces/inkscape"
   height="16"
   viewBox="0 0 16 16"
   width="16"
   version="1.1"
   id="svg4"
   sodipodi:docname="Box2DCapsuleShape.svg"
   inkscape:version="1.0.1 (3bc2e813f5, 2020-09-07)">
  <metadata
     id="metadata10">
    <rdf:RDF>
      <cc:Work
         rdf:about="">
        <dc:format>image/svg+xml</dc:format>
        <dc:type
           rdf:resource="http://purl.org/dc/dcmitype/StillImage" />
        <dc:title></dc:title>
      </cc:Work>
    </rdf:RDF>
  </metadata>
  <defs
     id="defs8" />
  <sodipodi:namedview
     pagecolor="#ffffff"
     bordercolor="#666666"
     borderopacity="1"
     objecttolerance="10"
     gridtolerance="10"
     guidetolerance="10"
     inkscape:pageopacity="0"
     inkscape:pageshadow="2"
     inkscape:window-width="3840"
     inkscape:window-height="2126"
     id="namedview6"
     showgrid="false"
     inkscape:zoom="63"
     inkscape:cx="8"
     inkscape:cy="8"
     inkscape:window-x="2149"
     inkscape:window-y="-11"
     inkscape:window-maximized="1"
     inkscape:current-layer="svg4" />
  <path
     id="path2"
     d="M 8 1 C 5.23 1 3 3.23 3 6 L 3 10 C 3 12.05682 4.2328358 13.810613 6 14.580078 L 6 14.099609 L 6 12.224609 C 5.3898959 11.676215 5 10.888703 5 10 L 5 6 C 5 4.338 6.338 3 8 3 C 9.662 3 11 4.338 11 6 L 11 10 C 11 10.564435 10.835328 11.085177 10.566406 11.535156 C 10.71158 11.624592 10.857853 11.731074 11 11.865234 L 11 11.599609 C 11 11.599609 11.012781 10.833219 11.488281 10.199219 C 11.808199 9.7726619 12.353554 9.4355426 13 9.2519531 L 13 6 C 13 3.23 10.77 1 8 1 z M 11.810547 13.099609 C 11.819619 13.124157 11.829677 13.148014 11.839844 13.171875 C 11.859873 13.147632 11.880815 13.124236 11.900391 13.099609 L 11.810547 13.099609 z "
     style="fill:#68b6ff;fill-opacity:1" />
  <path
     style="fill:none;stroke:#68b6ff;stroke-width:1px;stroke-linecap:square;stroke-linejoin:miter;stroke-opacity:1"
     d="m 7.5,10.1 v 5.5 H 9 c 0,0 1.5,0 1.5,-1.5 C 10.5,12.6 9,12.6 9,12.6 H 7.5"
     id="path987"
     sodipodi:nodetypes="ccczcc" />
  <path
     style="fill:none;stroke:#68b6ff;stroke-width:1px;stroke-linecap:square;stroke-linejoin:miter;stroke-opacity:1"
     d="m 15.5,15.6 h -3 c 0,-2.5 3,-2 3,-4 0,0 0,-1 -1.5,-1 -1.5,0 -1.5,1 -1.5,1"
     id="path989"
     sodipodi:nodetypes="ccszc" />
</svg>
