<?xml version="1.0" encoding="UTF-8" standalone="no"?>
<svg
   xmlns:dc="http://purl.org/dc/elements/1.1/"
   xmlns:cc="http://creativecommons.org/ns#"
   xmlns:rdf="http://www.w3.org/1999/02/22-rdf-syntax-ns#"
   xmlns:svg="http://www.w3.org/2000/svg"
   xmlns="http://www.w3.org/2000/svg"
   xmlns:sodipodi="http://sodipodi.sourceforge.net/DTD/sodipodi-0.dtd"
   xmlns:inkscape="http://www.inkscape.org/namespaces/inkscape"
   width="16"
   height="16"
   viewBox="0 0 4.2333332 4.2333335"
   version="1.1"
   id="svg8"
   inkscape:version="1.0.1 (3bc2e813f5, 2020-09-07)"
   sodipodi:docname="Box2DWorld_uncondensed.svg"
   inkscape:export-filename="C:\Users\brian\Documents\GitHub\mygodot4\modules\godot_box2d\icons\Box2DWorld.png"
   inkscape:export-xdpi="96"
   inkscape:export-ydpi="96">
  <defs
     id="defs2" />
  <sodipodi:namedview
     id="base"
     pagecolor="#ffffff"
     bordercolor="#666666"
     borderopacity="1.0"
     inkscape:pageopacity="0.0"
     inkscape:pageshadow="2"
     inkscape:zoom="69.230173"
     inkscape:cx="10.605543"
     inkscape:cy="8.0248473"
     inkscape:document-units="px"
     inkscape:current-layer="layer1"
     inkscape:document-rotation="0"
     showgrid="true"
     units="px"
     inkscape:window-width="3840"
     inkscape:window-height="2126"
     inkscape:window-x="2149"
     inkscape:window-y="-11"
     inkscape:window-maximized="1"
     inkscape:snap-global="true"
     showguides="true">
    <inkscape:grid
       type="xygrid"
       id="grid852" />
  </sodipodi:namedview>
  <metadata
     id="metadata5">
    <rdf:RDF>
      <cc:Work
         rdf:about="">
        <dc:format>image/svg+xml</dc:format>
        <dc:type
           rdf:resource="http://purl.org/dc/dcmitype/StillImage" />
        <dc:title></dc:title>
      </cc:Work>
    </rdf:RDF>
  </metadata>
  <g
     inkscape:label="Layer 1"
     inkscape:groupmode="layer"
     id="layer1">
    <ellipse
       style="fill:none;fill-opacity:1;stroke:#a5b7f3;stroke-width:0.463021;stroke-linecap:round;stroke-linejoin:round;stroke-miterlimit:4;stroke-dasharray:none;stroke-opacity:1;paint-order:markers stroke fill"
       id="path1010"
       cx="2.1166668"
       cy="2.1166666"
       rx="1.6205729"
       ry="1.6205728" />
    <path
       style="fill:#a5b7f3;fill-opacity:1;stroke:none;stroke-width:0.264583px;stroke-linecap:butt;stroke-linejoin:miter;stroke-opacity:1"
       d="M 1.2115081,0.84079426 1.6204398,0.94398264 1.7847769,1.1312504 2.407729,0.94398263 2.8854529,0.85990323 2.0828767,0.50065476 Z"
       id="path1012"
       sodipodi:nodetypes="ccccccc" />
    <path
       style="fill:#a5b7f3;fill-opacity:1;stroke:none;stroke-width:0.264583px;stroke-linecap:butt;stroke-linejoin:miter;stroke-opacity:1"
       d="m 1.0318839,2.4535904 0.098434,0.3511 0.2111125,0.1290232 -0.069106,0.5024198 0.2857888,0.015739 0.19011,-0.4487886 L 1.8194607,2.5642718 1.5208577,2.4661874 1.2394753,2.4834868 0.94780447,2.2166394 1.47139,1.6815885 1.4446375,1.2764785 0.85225965,1.1044979 0.55415986,2.3236496 Z"
       id="path1014"
       sodipodi:nodetypes="ccccccccccccccc" />
    <path
       style="fill:#a5b7f3;fill-opacity:1;stroke:none;stroke-width:0.264583px;stroke-linecap:butt;stroke-linejoin:miter;stroke-opacity:1"
       d="M 3.4701871,1.5210733 2.7249379,1.4217063 2.3656893,1.7006971 2.3809765,2.0866981 2.7707993,2.2510351 2.9274928,2.8357694 3.4281474,3.1338692 3.8141486,2.1707775 Z"
       id="path1016"
       sodipodi:nodetypes="ccccccccc" />
    <path
       style="fill:none;stroke:#000000;stroke-width:0.79375;stroke-linecap:square;stroke-linejoin:miter;stroke-miterlimit:4;stroke-dasharray:none;stroke-opacity:1"
       d="m 1.7197917,2.38125 v 1.4552083 h 0.396875 c 0,0 0.396875,0 0.396875,-0.396875 0,-0.396875 -0.396875,-0.396875 -0.396875,-0.396875 h -0.396875"
       id="path987-0"
       sodipodi:nodetypes="ccczcc" />
    <path
       style="fill:none;stroke:#708cea;stroke-width:0.264583px;stroke-linecap:square;stroke-linejoin:miter;stroke-opacity:1"
       d="m 1.7197917,2.38125 v 1.4552083 h 0.396875 c 0,0 0.396875,0 0.396875,-0.396875 0,-0.396875 -0.396875,-0.396875 -0.396875,-0.396875 h -0.396875"
       id="path987"
       sodipodi:nodetypes="ccczcc" />
    <path
       style="fill:none;stroke:#000000;stroke-width:0.79375;stroke-linecap:square;stroke-linejoin:miter;stroke-miterlimit:4;stroke-dasharray:none;stroke-opacity:1"
       d="m 3.8364584,3.8364583 h -0.79375 c 0,-0.6614583 0.79375,-0.5291666 0.79375,-1.0583333 0,0 0,-0.2645833 -0.396875,-0.2645833 -0.396875,0 -0.396875,0.2645833 -0.396875,0.2645833"
       id="path989-7"
       sodipodi:nodetypes="ccszc" />
    <path
       style="fill:none;stroke:#708cea;stroke-width:0.264583px;stroke-linecap:square;stroke-linejoin:miter;stroke-opacity:1"
       d="m 3.8364584,3.8364583 h -0.79375 c 0,-0.6614583 0.79375,-0.5291666 0.79375,-1.0583333 0,0 0,-0.2645833 -0.396875,-0.2645833 -0.396875,0 -0.396875,0.2645833 -0.396875,0.2645833"
       id="path989"
       sodipodi:nodetypes="ccszc" />
  </g>
</svg>
