<?xml version="1.0" encoding="UTF-8" standalone="no"?>
<svg
   xmlns:dc="http://purl.org/dc/elements/1.1/"
   xmlns:cc="http://creativecommons.org/ns#"
   xmlns:rdf="http://www.w3.org/1999/02/22-rdf-syntax-ns#"
   xmlns:svg="http://www.w3.org/2000/svg"
   xmlns="http://www.w3.org/2000/svg"
   xmlns:sodipodi="http://sodipodi.sourceforge.net/DTD/sodipodi-0.dtd"
   xmlns:inkscape="http://www.inkscape.org/namespaces/inkscape"
   height="16"
   viewBox="0 0 16 16"
   width="16"
   version="1.1"
   id="svg4"
   sodipodi:docname="Box2DDistanceJoint.svg"
   inkscape:version="1.0.1 (3bc2e813f5, 2020-09-07)"
   inkscape:export-filename="C:\Users\brian\Documents\GitHub\mygodot4\modules\godot_box2d\icons\Box2DDistanceJoint.png"
   inkscape:export-xdpi="96"
   inkscape:export-ydpi="96">
  <metadata
     id="metadata10">
    <rdf:RDF>
      <cc:Work
         rdf:about="">
        <dc:format>image/svg+xml</dc:format>
        <dc:type
           rdf:resource="http://purl.org/dc/dcmitype/StillImage" />
        <dc:title />
      </cc:Work>
    </rdf:RDF>
  </metadata>
  <defs
     id="defs8" />
  <sodipodi:namedview
     pagecolor="#2c2c2c"
     bordercolor="#666666"
     borderopacity="1"
     objecttolerance="10"
     gridtolerance="10"
     guidetolerance="10"
     inkscape:pageopacity="1"
     inkscape:pageshadow="2"
     inkscape:window-width="3840"
     inkscape:window-height="2126"
     id="namedview6"
     showgrid="true"
     inkscape:zoom="45.254834"
     inkscape:cx="12.398566"
     inkscape:cy="6.8281811"
     inkscape:window-x="2149"
     inkscape:window-y="-11"
     inkscape:window-maximized="1"
     inkscape:current-layer="svg4"
     inkscape:document-rotation="0"
     inkscape:pagecheckerboard="true"
     inkscape:snap-global="true"
     showguides="true">
    <inkscape:grid
       type="xygrid"
       id="grid835"
       spacingx="0.5"
       spacingy="0.5"
       empspacing="2"
       color="#7d7dc1"
       opacity="0.12941176"
       dotted="true" />
  </sodipodi:namedview>
  <path
     style="fill:none;stroke:#a5b7f3;stroke-width:1px;stroke-linecap:square;stroke-linejoin:miter;stroke-opacity:1"
     d="m 7.5,10 v 5.5 H 9 c 0,0 1.5,0 1.5,-1.5 C 10.5,12.5 9,12.5 9,12.5 H 7.5"
     id="path987"
     sodipodi:nodetypes="ccczcc" />
  <path
     style="fill:none;stroke:#a5b7f3;stroke-width:1px;stroke-linecap:square;stroke-linejoin:miter;stroke-opacity:1"
     d="m 15.5,15.5 h -3 c 0,-2.5 3,-2 3,-4 0,0 0,-1 -1.5,-1 -1.5,0 -1.5,1 -1.5,1"
     id="path989"
     sodipodi:nodetypes="ccszc" />
  <path
     id="path953-2"
     style="fill:#708ceb;fill-opacity:0.988235;stroke:none;stroke-width:1px;stroke-linecap:butt;stroke-linejoin:miter;stroke-opacity:1"
     d="M 7.5 3.5 L 6 5 L 12.5 8.5 L 14 7 L 7.5 3.5 z M 4.5 6.5 L 3 8 L 6 9.6152344 L 6 8.5 L 8.2148438 8.5 L 4.5 6.5 z M 9 8.9238281 L 9 10 L 9 11 C 9 11 9.3762952 10.991294 9.8671875 11.132812 L 11 10 L 9 8.9238281 z M 3.5 10.5 L 2 12 L 6 14.222656 L 6 14 L 6 11.888672 L 3.5 10.5 z " />
  <path
     id="path953"
     style="fill:#96abf0;fill-opacity:0.996639;stroke:none;stroke-width:1px;stroke-linecap:butt;stroke-linejoin:miter;stroke-opacity:1"
     d="M 11 0 L 12.5 1.5 L 10.5 3.5 L 10 4 L 12.5 8.5 L 14 7 L 12.927734 5.0722656 L 14.5 3.5 L 16 5 L 16 0 L 11 0 z M 7.5 3.5 L 6 5 L 7.8847656 8.5 L 9 8.5 L 9 10 L 9 10.572266 L 9.2421875 11.019531 C 9.3952142 11.028744 9.5611646 11.04459 9.8671875 11.132812 L 11 10 L 7.5 3.5 z M 4.5 6.5 L 3 8 L 6 13.572266 L 6 11 L 6 10 L 6 9.2851562 L 4.5 6.5 z M 3.5 10.5 L 1.5 12.5 L 0 11 L 0 16 L 5 16 L 3.5 14.5 L 4.5 13.5 L 3.5 10.5 z " />
</svg>
