<?xml version="1.0" encoding="UTF-8" standalone="no"?>
<svg
   xmlns:dc="http://purl.org/dc/elements/1.1/"
   xmlns:cc="http://creativecommons.org/ns#"
   xmlns:rdf="http://www.w3.org/1999/02/22-rdf-syntax-ns#"
   xmlns:svg="http://www.w3.org/2000/svg"
   xmlns="http://www.w3.org/2000/svg"
   xmlns:sodipodi="http://sodipodi.sourceforge.net/DTD/sodipodi-0.dtd"
   xmlns:inkscape="http://www.inkscape.org/namespaces/inkscape"
   width="16"
   height="16"
   viewBox="0 0 4.2333332 4.2333332"
   version="1.1"
   id="svg853"
   sodipodi:docname="Box2DWeldJoint.svg"
   inkscape:version="1.0.1 (3bc2e813f5, 2020-09-07)">
  <defs
     id="defs847" />
  <sodipodi:namedview
     id="base"
     pagecolor="#ffffff"
     bordercolor="#666666"
     borderopacity="1.0"
     inkscape:pageopacity="0.0"
     inkscape:pageshadow="2"
     inkscape:zoom="63.356767"
     inkscape:cx="11.488313"
     inkscape:cy="10.584535"
     inkscape:document-units="px"
     inkscape:current-layer="layer1"
     inkscape:document-rotation="0"
     showgrid="true"
     units="px"
     inkscape:window-width="3840"
     inkscape:window-height="2126"
     inkscape:window-x="2149"
     inkscape:window-y="-11"
     inkscape:window-maximized="1">
    <inkscape:grid
       type="xygrid"
       id="grid1416"
       dotted="true"
       empspacing="2"
       spacingx="0.13229166"
       spacingy="0.13229166" />
  </sodipodi:namedview>
  <metadata
     id="metadata850">
    <rdf:RDF>
      <cc:Work
         rdf:about="">
        <dc:format>image/svg+xml</dc:format>
        <dc:type
           rdf:resource="http://purl.org/dc/dcmitype/StillImage" />
        <dc:title></dc:title>
      </cc:Work>
    </rdf:RDF>
  </metadata>
  <g
     inkscape:label="Layer 1"
     inkscape:groupmode="layer"
     id="layer1">
    <path
       style="fill:#a5b7f3;fill-opacity:1;stroke:none;stroke-width:0.264583px;stroke-linecap:butt;stroke-linejoin:miter;stroke-opacity:1"
       d="m 3.1749998,0 c 0.396875,0 0.5291667,0.13229166 0.5291667,0.52916664 l 0,1.32291656 H 2.6458332 L 3.1749998,0.52916664 H 0.52916664 L 1.0583333,1.8520832 H 0 V 0.52916665 C 0,0.13229166 0.13229166,0 0.52916665,0 Z"
       id="path1418"
       sodipodi:nodetypes="ssccccccsss" />
    <path
       id="path1420"
       style="fill:#a5b7f3;fill-opacity:1;stroke:none;stroke-width:0.999999px;stroke-linecap:butt;stroke-linejoin:miter;stroke-opacity:1"
       d="M 4 3 L 6 8 L 0 8 L 0 12 C -2.9605947e-16 13.5 0.50000003 14 2 14 L 6.0019531 14 L 6.0019531 10.998047 L 6.0019531 10.001953 L 6.0019531 8.4960938 L 8.9980469 8.4960938 L 8.9980469 10.001953 L 8.9980469 10.998047 C 8.9980469 10.998047 9.6910572 10.979318 10.423828 11.345703 C 10.614095 11.440837 10.809209 11.585714 10.998047 11.763672 L 10.998047 11.501953 C 10.998047 11.501953 11.010828 10.731656 11.486328 10.097656 C 11.961242 9.4644386 12.918311 8.9991935 14 8.9980469 L 14 8 L 8 8 L 10 3 L 4 3 z M 11.814453 13 C 11.828099 13.036862 11.845116 13.071754 11.857422 13.109375 C 11.90308 13.071761 11.948143 13.049801 11.996094 13 L 11.814453 13 z "
       transform="scale(0.26458333)" />
    <path
       style="fill:none;stroke:#a5b7f3;stroke-width:0.264583px;stroke-linecap:square;stroke-linejoin:miter;stroke-opacity:1"
       d="m 1.9843749,2.6458333 v 1.4552083 h 0.396875 c 0,0 0.3968751,0 0.3968751,-0.396875 0,-0.396875 -0.3968751,-0.396875 -0.3968751,-0.396875 h -0.396875"
       id="path987"
       sodipodi:nodetypes="ccczcc" />
    <path
       style="fill:none;stroke:#a5b7f3;stroke-width:0.264583px;stroke-linecap:square;stroke-linejoin:miter;stroke-opacity:1"
       d="m 4.1010416,4.1010416 h -0.79375 c 0,-0.6614583 0.79375,-0.5291667 0.79375,-1.0583333 0,0 0,-0.2645833 -0.396875,-0.2645833 -0.396875,0 -0.396875,0.2645833 -0.396875,0.2645833"
       id="path989"
       sodipodi:nodetypes="ccszc" />
  </g>
</svg>
