<?xml version="1.0" encoding="UTF-8" standalone="no"?>
<svg
   xmlns:dc="http://purl.org/dc/elements/1.1/"
   xmlns:cc="http://creativecommons.org/ns#"
   xmlns:rdf="http://www.w3.org/1999/02/22-rdf-syntax-ns#"
   xmlns:svg="http://www.w3.org/2000/svg"
   xmlns="http://www.w3.org/2000/svg"
   xmlns:sodipodi="http://sodipodi.sourceforge.net/DTD/sodipodi-0.dtd"
   xmlns:inkscape="http://www.inkscape.org/namespaces/inkscape"
   height="16"
   viewBox="0 0 16 16"
   width="16"
   version="1.1"
   id="svg4"
   sodipodi:docname="Box2DRevoluteJoint.svg"
   inkscape:version="1.0.1 (3bc2e813f5, 2020-09-07)">
  <metadata
     id="metadata10">
    <rdf:RDF>
      <cc:Work
         rdf:about="">
        <dc:format>image/svg+xml</dc:format>
        <dc:type
           rdf:resource="http://purl.org/dc/dcmitype/StillImage" />
        <dc:title></dc:title>
      </cc:Work>
    </rdf:RDF>
  </metadata>
  <defs
     id="defs8" />
  <sodipodi:namedview
     pagecolor="#ffffff"
     bordercolor="#666666"
     borderopacity="1"
     objecttolerance="10"
     gridtolerance="10"
     guidetolerance="10"
     inkscape:pageopacity="0"
     inkscape:pageshadow="2"
     inkscape:window-width="3840"
     inkscape:window-height="2126"
     id="namedview6"
     showgrid="false"
     inkscape:zoom="63"
     inkscape:cx="8"
     inkscape:cy="8"
     inkscape:window-x="2149"
     inkscape:window-y="-11"
     inkscape:window-maximized="1"
     inkscape:current-layer="svg4" />
  <path
     d="M 1.6773846,15.053736 A 1.0001,1.0001 0 0 1 1.1703975,14.170144 l 9.92e-5,-7.3791719 C 1.4527094,7.1141454 1.7776222,7.4076199 2.169923,7.6341149 2.4907248,7.8193299 2.8291818,7.9363652 3.17113,8.0249736 L 3.1706699,14.17037 A 1.0001,1.0001 0 0 1 1.6773473,15.053761 Z M 2.67,6.7680762 A 3,3 0 0 1 1.5719238,2.67 3,3 0 0 1 5.67,1.5719238 l 8.660254,5 a 1,1 0 0 1 0.366026,1.3660254 1,1 0 0 1 -1.366026,0.3660254 l -6.212693,-3.5869 A 3,3 0 0 1 6.7681022,5.670015 3,3 0 0 1 2.670026,6.7680912 Z m 1,-1.7320508 A 1,1 0 0 0 5.0360254,4.67 1,1 0 0 0 4.67,3.3039746 1,1 0 0 0 3.3039746,3.67 1,1 0 0 0 3.67,5.0360254 Z"
     fill="#fc9c9c"
     id="path2"
     style="fill:#a5b7f3;fill-opacity:1" />
  <path
     style="fill:none;stroke:#a5b7f3;stroke-width:1px;stroke-linecap:square;stroke-linejoin:miter;stroke-opacity:1"
     d="m 7.5,10 v 5.5 H 9 c 0,0 1.5,0 1.5,-1.5 C 10.5,12.5 9,12.5 9,12.5 H 7.5"
     id="path987"
     sodipodi:nodetypes="ccczcc" />
  <path
     style="fill:none;stroke:#a5b7f3;stroke-width:1px;stroke-linecap:square;stroke-linejoin:miter;stroke-opacity:1"
     d="m 15.5,15.5 h -3 c 0,-2.5 3,-2 3,-4 0,0 0,-1 -1.5,-1 -1.5,0 -1.5,1 -1.5,1"
     id="path989"
     sodipodi:nodetypes="ccszc" />
</svg>
