<?xml version="1.0" encoding="UTF-8" standalone="no"?>
<svg
   xmlns:dc="http://purl.org/dc/elements/1.1/"
   xmlns:cc="http://creativecommons.org/ns#"
   xmlns:rdf="http://www.w3.org/1999/02/22-rdf-syntax-ns#"
   xmlns:svg="http://www.w3.org/2000/svg"
   xmlns="http://www.w3.org/2000/svg"
   xmlns:sodipodi="http://sodipodi.sourceforge.net/DTD/sodipodi-0.dtd"
   xmlns:inkscape="http://www.inkscape.org/namespaces/inkscape"
   height="16"
   viewBox="0 0 16 16"
   width="16"
   version="1.1"
   id="svg4"
   sodipodi:docname="Box2DPrismaticJoint.svg"
   inkscape:version="1.0.1 (3bc2e813f5, 2020-09-07)"
   inkscape:export-filename="C:\Users\brian\Documents\GitHub\mygodot4\modules\godot_box2d\icons\b2template.png"
   inkscape:export-xdpi="96"
   inkscape:export-ydpi="96">
  <metadata
     id="metadata10">
    <rdf:RDF>
      <cc:Work
         rdf:about="">
        <dc:format>image/svg+xml</dc:format>
        <dc:type
           rdf:resource="http://purl.org/dc/dcmitype/StillImage" />
        <dc:title />
      </cc:Work>
    </rdf:RDF>
  </metadata>
  <defs
     id="defs8" />
  <sodipodi:namedview
     pagecolor="#2c2c2c"
     bordercolor="#666666"
     borderopacity="1"
     objecttolerance="10"
     gridtolerance="10"
     guidetolerance="10"
     inkscape:pageopacity="1"
     inkscape:pageshadow="2"
     inkscape:window-width="1606"
     inkscape:window-height="1228"
     id="namedview6"
     showgrid="true"
     inkscape:zoom="45.254834"
     inkscape:cx="7.9686675"
     inkscape:cy="8.7056323"
     inkscape:window-x="2739"
     inkscape:window-y="489"
     inkscape:window-maximized="0"
     inkscape:current-layer="svg4"
     inkscape:document-rotation="0"
     inkscape:pagecheckerboard="true"
     inkscape:snap-global="true"
     showguides="true">
    <inkscape:grid
       type="xygrid"
       id="grid835"
       spacingx="0.5"
       spacingy="0.5"
       empspacing="2"
       color="#7d7dc1"
       opacity="0.12941176"
       dotted="true" />
  </sodipodi:namedview>
  <path
     style="fill:none;stroke:#a5b7f3;stroke-width:1px;stroke-linecap:square;stroke-linejoin:miter;stroke-opacity:1"
     d="m 7.5,10 v 5.5 H 9 c 0,0 1.5,0 1.5,-1.5 C 10.5,12.5 9,12.5 9,12.5 H 7.5"
     id="path987"
     sodipodi:nodetypes="ccczcc" />
  <path
     style="fill:none;stroke:#a5b7f3;stroke-width:1px;stroke-linecap:square;stroke-linejoin:miter;stroke-opacity:1"
     d="m 15.5,15.5 h -3 c 0,-2.5 3,-2 3,-4 0,0 0,-1 -1.5,-1 -1.5,0 -1.5,1 -1.5,1"
     id="path989"
     sodipodi:nodetypes="ccszc" />
  <path
     id="path841"
     style="fill:#a5b7f3;fill-opacity:1;stroke-width:1"
     d="M 0 7 L 5.3339844 12.333984 C 5.5180777 12.518078 5.7587133 12.609375 6 12.609375 L 6 11 L 6 10.333984 L 4.6660156 9 L 6 9 L 6 8.5 L 9 8.5 L 9 9 L 14 9 L 16 7 L 0 7 z " />
  <path
     style="fill:#a5b7f3;fill-opacity:1;stroke-width:1"
     d="m 10.666667,0.66666649 c -0.368187,-0.36818666 -0.9651466,-0.36818666 -1.3333333,0 -0.3681868,0.36818661 -0.3681868,0.96514671 0,1.33333341 l 1.9999993,2 H 2.0000001 L 0,6 h 16 z"
     id="path2" />
</svg>
